<svg xmlns="http://www.w3.org/2000/svg" xmlns:xlink="http://www.w3.org/1999/xlink" width="500" zoomAndPan="magnify" viewBox="0 0 375 374.999991" height="500" preserveAspectRatio="xMidYMid meet" version="1.0"><defs><g/><clipPath id="6e2caee772"><path d="M 256.808594 119.851562 L 314.558594 119.851562 L 314.558594 177.601562 L 256.808594 177.601562 Z M 256.808594 119.851562 " clip-rule="nonzero"/></clipPath></defs><g fill="#df6d69" fill-opacity="1"><g transform="translate(30.803608, 174.074785)"><g><path d="M 42.359375 -33.78125 C 42.359375 -30.894531 41.695312 -28.253906 40.375 -25.859375 C 39.050781 -23.472656 37.015625 -21.546875 34.265625 -20.078125 C 31.523438 -18.609375 28.117188 -17.875 24.046875 -17.875 L 16.53125 -17.875 L 16.53125 0 L 4.40625 0 L 4.40625 -49.8125 L 24.046875 -49.8125 C 28.023438 -49.8125 31.382812 -49.125 34.125 -47.75 C 36.875 -46.375 38.929688 -44.476562 40.296875 -42.0625 C 41.671875 -39.65625 42.359375 -36.894531 42.359375 -33.78125 Z M 23.125 -27.53125 C 25.445312 -27.53125 27.175781 -28.070312 28.3125 -29.15625 C 29.445312 -30.25 30.015625 -31.789062 30.015625 -33.78125 C 30.015625 -35.757812 29.445312 -37.289062 28.3125 -38.375 C 27.175781 -39.46875 25.445312 -40.015625 23.125 -40.015625 L 16.53125 -40.015625 L 16.53125 -27.53125 Z M 23.125 -27.53125 "/></g></g></g><g fill="#df6d69" fill-opacity="1"><g transform="translate(75.08074, 174.074785)"><g><path d="M 22.421875 0.5625 C 18.546875 0.5625 15.054688 -0.265625 11.953125 -1.921875 C 8.859375 -3.578125 6.421875 -5.941406 4.640625 -9.015625 C 2.867188 -12.085938 1.984375 -15.679688 1.984375 -19.796875 C 1.984375 -23.859375 2.878906 -27.4375 4.671875 -30.53125 C 6.472656 -33.632812 8.9375 -36.015625 12.0625 -37.671875 C 15.1875 -39.328125 18.6875 -40.15625 22.5625 -40.15625 C 26.4375 -40.15625 29.9375 -39.328125 33.0625 -37.671875 C 36.1875 -36.015625 38.644531 -33.632812 40.4375 -30.53125 C 42.238281 -27.4375 43.140625 -23.859375 43.140625 -19.796875 C 43.140625 -15.722656 42.226562 -12.140625 40.40625 -9.046875 C 38.582031 -5.953125 36.097656 -3.578125 32.953125 -1.921875 C 29.804688 -0.265625 26.296875 0.5625 22.421875 0.5625 Z M 22.421875 -9.9375 C 24.734375 -9.9375 26.707031 -10.785156 28.34375 -12.484375 C 29.976562 -14.191406 30.796875 -16.628906 30.796875 -19.796875 C 30.796875 -22.960938 30.003906 -25.394531 28.421875 -27.09375 C 26.835938 -28.800781 24.882812 -29.65625 22.5625 -29.65625 C 20.195312 -29.65625 18.234375 -28.816406 16.671875 -27.140625 C 15.109375 -25.460938 14.328125 -23.015625 14.328125 -19.796875 C 14.328125 -16.628906 15.09375 -14.191406 16.625 -12.484375 C 18.164062 -10.785156 20.097656 -9.9375 22.421875 -9.9375 Z M 22.421875 -9.9375 "/></g></g></g><g fill="#df6d69" fill-opacity="1"><g transform="translate(120.28031, 174.074785)"><g><path d="M 16.53125 -52.5 L 16.53125 0 L 4.40625 0 L 4.40625 -52.5 Z M 16.53125 -52.5 "/></g></g></g><g fill="#df6d69" fill-opacity="1"><g transform="translate(141.212606, 174.074785)"><g><path d="M 44.84375 -39.59375 L 20.015625 18.796875 L 6.953125 18.796875 L 16.03125 -1.34375 L -0.078125 -39.59375 L 13.484375 -39.59375 L 22.640625 -14.828125 L 31.71875 -39.59375 Z M 44.84375 -39.59375 "/></g></g></g><g fill="#df6d69" fill-opacity="1"><g transform="translate(186.057398, 174.074785)"><g><path d="M 19.4375 -40.15625 C 22.226562 -40.15625 24.675781 -39.585938 26.78125 -38.453125 C 28.882812 -37.316406 30.503906 -35.828125 31.640625 -33.984375 L 31.640625 -39.59375 L 43.78125 -39.59375 L 43.78125 -0.078125 C 43.78125 3.566406 43.054688 6.867188 41.609375 9.828125 C 40.171875 12.785156 37.972656 15.140625 35.015625 16.890625 C 32.054688 18.640625 28.378906 19.515625 23.984375 19.515625 C 18.117188 19.515625 13.363281 18.128906 9.71875 15.359375 C 6.070312 12.585938 3.992188 8.835938 3.484375 4.109375 L 15.46875 4.109375 C 15.84375 5.628906 16.738281 6.828125 18.15625 7.703125 C 19.582031 8.578125 21.335938 9.015625 23.421875 9.015625 C 25.921875 9.015625 27.914062 8.289062 29.40625 6.84375 C 30.894531 5.40625 31.640625 3.097656 31.640625 -0.078125 L 31.640625 -5.671875 C 30.460938 -3.828125 28.832031 -2.328125 26.75 -1.171875 C 24.664062 -0.015625 22.226562 0.5625 19.4375 0.5625 C 16.175781 0.5625 13.21875 -0.273438 10.5625 -1.953125 C 7.914062 -3.628906 5.820312 -6.015625 4.28125 -9.109375 C 2.75 -12.210938 1.984375 -15.796875 1.984375 -19.859375 C 1.984375 -23.929688 2.75 -27.503906 4.28125 -30.578125 C 5.820312 -33.648438 7.914062 -36.015625 10.5625 -37.671875 C 13.21875 -39.328125 16.175781 -40.15625 19.4375 -40.15625 Z M 31.640625 -19.796875 C 31.640625 -22.828125 30.800781 -25.21875 29.125 -26.96875 C 27.445312 -28.71875 25.398438 -29.59375 22.984375 -29.59375 C 20.578125 -29.59375 18.53125 -28.726562 16.84375 -27 C 15.164062 -25.269531 14.328125 -22.890625 14.328125 -19.859375 C 14.328125 -16.835938 15.164062 -14.4375 16.84375 -12.65625 C 18.53125 -10.882812 20.578125 -10 22.984375 -10 C 25.398438 -10 27.445312 -10.875 29.125 -12.625 C 30.800781 -14.375 31.640625 -16.765625 31.640625 -19.796875 Z M 31.640625 -19.796875 "/></g></g></g><g fill="#df6d69" fill-opacity="1"><g transform="translate(234.237158, 174.074785)"><g><path d="M 16.53125 -52.5 L 16.53125 0 L 4.40625 0 L 4.40625 -52.5 Z M 16.53125 -52.5 "/></g></g></g><g fill="#df6d69" fill-opacity="1"><g transform="translate(255.170781, 174.074785)"><g/></g></g><g fill="#df6d69" fill-opacity="1"><g transform="translate(270.213649, 174.074785)"><g/></g></g><g fill="#df6d69" fill-opacity="1"><g transform="translate(285.256518, 174.074785)"><g/></g></g><g fill="#df6d69" fill-opacity="1"><g transform="translate(300.299386, 174.074785)"><g/></g></g><g fill="#df6d69" fill-opacity="1"><g transform="translate(315.346562, 174.074785)"><g><path d="M 26.46875 -10.28125 L 26.46875 0 L 20.296875 0 C 15.890625 0 12.457031 -1.070312 10 -3.21875 C 7.539062 -5.375 6.3125 -8.890625 6.3125 -13.765625 L 6.3125 -29.515625 L 1.484375 -29.515625 L 1.484375 -39.59375 L 6.3125 -39.59375 L 6.3125 -49.234375 L 18.453125 -49.234375 L 18.453125 -39.59375 L 26.390625 -39.59375 L 26.390625 -29.515625 L 18.453125 -29.515625 L 18.453125 -13.625 C 18.453125 -12.4375 18.734375 -11.582031 19.296875 -11.0625 C 19.867188 -10.539062 20.816406 -10.28125 22.140625 -10.28125 Z M 26.46875 -10.28125 "/></g></g></g><g fill="#df6d69" fill-opacity="1"><g transform="translate(30.803608, 235.574781)"><g><path d="M 16.53125 -9.359375 L 32.421875 -9.359375 L 32.421875 0 L 4.40625 0 L 4.40625 -49.8125 L 16.53125 -49.8125 Z M 16.53125 -9.359375 "/></g></g></g><g fill="#df6d69" fill-opacity="1"><g transform="translate(64.650068, 235.574781)"><g><path d="M 1.984375 -19.859375 C 1.984375 -23.929688 2.75 -27.503906 4.28125 -30.578125 C 5.820312 -33.648438 7.914062 -36.015625 10.5625 -37.671875 C 13.21875 -39.328125 16.175781 -40.15625 19.4375 -40.15625 C 22.226562 -40.15625 24.675781 -39.585938 26.78125 -38.453125 C 28.882812 -37.316406 30.503906 -35.828125 31.640625 -33.984375 L 31.640625 -39.59375 L 43.78125 -39.59375 L 43.78125 0 L 31.640625 0 L 31.640625 -5.609375 C 30.460938 -3.765625 28.820312 -2.273438 26.71875 -1.140625 C 24.613281 -0.00390625 22.164062 0.5625 19.375 0.5625 C 16.15625 0.5625 13.21875 -0.273438 10.5625 -1.953125 C 7.914062 -3.628906 5.820312 -6.015625 4.28125 -9.109375 C 2.75 -12.210938 1.984375 -15.796875 1.984375 -19.859375 Z M 31.640625 -19.796875 C 31.640625 -22.828125 30.800781 -25.21875 29.125 -26.96875 C 27.445312 -28.71875 25.398438 -29.59375 22.984375 -29.59375 C 20.578125 -29.59375 18.53125 -28.726562 16.84375 -27 C 15.164062 -25.269531 14.328125 -22.890625 14.328125 -19.859375 C 14.328125 -16.835938 15.164062 -14.4375 16.84375 -12.65625 C 18.53125 -10.882812 20.578125 -10 22.984375 -10 C 25.398438 -10 27.445312 -10.875 29.125 -12.625 C 30.800781 -14.375 31.640625 -16.765625 31.640625 -19.796875 Z M 31.640625 -19.796875 "/></g></g></g><g fill="#df6d69" fill-opacity="1"><g transform="translate(112.829829, 235.574781)"><g><path d="M 16.53125 -33.984375 C 17.664062 -35.828125 19.296875 -37.316406 21.421875 -38.453125 C 23.554688 -39.585938 25.992188 -40.15625 28.734375 -40.15625 C 31.992188 -40.15625 34.945312 -39.328125 37.59375 -37.671875 C 40.25 -36.015625 42.34375 -33.648438 43.875 -30.578125 C 45.414062 -27.503906 46.1875 -23.929688 46.1875 -19.859375 C 46.1875 -15.796875 45.414062 -12.210938 43.875 -9.109375 C 42.34375 -6.015625 40.25 -3.628906 37.59375 -1.953125 C 34.945312 -0.273438 31.992188 0.5625 28.734375 0.5625 C 25.941406 0.5625 23.503906 0.0078125 21.421875 -1.09375 C 19.347656 -2.207031 17.71875 -3.6875 16.53125 -5.53125 L 16.53125 0 L 4.40625 0 L 4.40625 -52.5 L 16.53125 -52.5 Z M 33.84375 -19.859375 C 33.84375 -22.890625 33.003906 -25.269531 31.328125 -27 C 29.648438 -28.726562 27.582031 -29.59375 25.125 -29.59375 C 22.707031 -29.59375 20.660156 -28.71875 18.984375 -26.96875 C 17.304688 -25.21875 16.46875 -22.828125 16.46875 -19.796875 C 16.46875 -16.765625 17.304688 -14.375 18.984375 -12.625 C 20.660156 -10.875 22.707031 -10 25.125 -10 C 27.53125 -10 29.582031 -10.882812 31.28125 -12.65625 C 32.988281 -14.4375 33.84375 -16.835938 33.84375 -19.859375 Z M 33.84375 -19.859375 "/></g></g></g><g clip-path="url(#6e2caee772)"><path fill="#df6d69" d="M 285.652344 119.851562 C 269.707031 119.851562 256.808594 132.765625 256.808594 148.710938 C 256.808594 164.652344 269.707031 177.566406 285.652344 177.566406 C 301.59375 177.566406 314.523438 164.652344 314.523438 148.710938 C 314.523438 132.765625 301.59375 119.851562 285.652344 119.851562 Z M 305.636719 137.167969 L 297.121094 137.167969 C 296.183594 133.558594 294.871094 130.097656 293.140625 126.894531 C 298.449219 128.710938 302.867188 132.390625 305.636719 137.167969 Z M 285.667969 125.726562 C 288.074219 129.1875 289.953125 133.039062 291.179688 137.167969 L 280.15625 137.167969 C 281.382812 133.039062 283.257812 129.1875 285.667969 125.726562 Z M 263.332031 154.480469 C 262.855469 152.636719 262.582031 150.703125 262.582031 148.710938 C 262.582031 146.71875 262.855469 144.785156 263.332031 142.9375 L 273.070312 142.9375 C 272.839844 144.828125 272.679688 146.746094 272.679688 148.710938 C 272.679688 150.671875 272.839844 152.589844 273.085938 154.480469 Z M 265.683594 160.253906 L 274.195312 160.253906 C 275.132812 163.859375 276.445312 167.324219 278.179688 170.539062 C 272.867188 168.722656 268.453125 165.027344 265.683594 160.253906 Z M 274.195312 137.167969 L 265.683594 137.167969 C 268.453125 132.390625 272.867188 128.699219 278.179688 126.878906 C 276.445312 130.097656 275.132812 133.558594 274.195312 137.167969 Z M 285.667969 171.695312 C 283.269531 168.230469 281.394531 164.378906 280.15625 160.253906 L 291.179688 160.253906 C 289.9375 164.378906 288.0625 168.230469 285.667969 171.695312 Z M 292.417969 154.480469 L 278.914062 154.480469 C 278.640625 152.589844 278.453125 150.671875 278.453125 148.710938 C 278.453125 146.746094 278.640625 144.828125 278.914062 142.9375 L 292.417969 142.9375 C 292.691406 144.828125 292.878906 146.746094 292.878906 148.710938 C 292.878906 150.671875 292.691406 152.589844 292.417969 154.480469 Z M 293.15625 170.527344 C 294.886719 167.308594 296.199219 163.859375 297.136719 160.253906 L 305.648438 160.253906 C 302.867188 165.027344 298.449219 168.707031 293.15625 170.527344 Z M 298.25 154.480469 C 298.480469 152.589844 298.652344 150.671875 298.652344 148.710938 C 298.652344 146.746094 298.492188 144.828125 298.25 142.9375 L 307.988281 142.9375 C 308.464844 144.785156 308.753906 146.71875 308.753906 148.710938 C 308.753906 150.703125 308.476562 152.636719 307.988281 154.480469 Z M 298.25 154.480469 " fill-opacity="1" fill-rule="nonzero"/></g></svg>